HIERARCHY
ROOT Hips
{
	OFFSET 0.000000 0.000000 0.000000
	CHANNELS 6 Xposition Yposition Zposition Zrotation Yrotation Xrotation 
	JOINT LHipJoint
	{
		OFFSET 0.000000 0.000000 0.000000
		CHANNELS 3 Zrotation Yrotation Xrotation
		JOINT LeftUpLeg
		{
			OFFSET 1.363060 -1.794630 0.839290
			CHANNELS 3 Zrotation Yrotation Xrotation
			JOINT LeftLeg
			{
				OFFSET 2.448110 -6.726130 0.000000
				CHANNELS 3 Zrotation Yrotation Xrotation
				JOINT LeftFoot
				{
					OFFSET 2.562200 -7.039590 0.000000
					CHANNELS 3 Zrotation Yrotation Xrotation
					JOINT LeftToeBase
					{
						OFFSET 0.157640 -0.433110 2.322550
						CHANNELS 3 Zrotation Yrotation Xrotation
						End Site
						{
							OFFSET 0.000000 0.000000 0.000000
						}
					}
				}
			}
		}
	}
	JOINT RHipJoint
	{
		OFFSET 0.000000 0.000000 0.000000
		CHANNELS 3 Zrotation Yrotation Xrotation
		JOINT RightUpLeg
		{
			OFFSET -1.305520 -1.794630 0.839290
			CHANNELS 3 Zrotation Yrotation Xrotation
			JOINT RightLeg
			{
				OFFSET -2.542530 -6.985550 0.000000
				CHANNELS 3 Zrotation Yrotation Xrotation
				JOINT RightFoot
				{
					OFFSET -2.568260 -7.056230 0.000000
					CHANNELS 3 Zrotation Yrotation Xrotation
					JOINT RightToeBase
					{
						OFFSET -0.164730 -0.452590 2.363150
						CHANNELS 3 Zrotation Yrotation Xrotation
						End Site
						{
							OFFSET 0.000000 0.000000 0.000000
						}
					}
				}
			}
		}
	}
	JOINT LowerBack
	{
		OFFSET 0.000000 0.000000 0.000000
		CHANNELS 3 Zrotation Yrotation Xrotation
		JOINT Spine
		{
			OFFSET 0.028270 2.035590 -0.193380
			CHANNELS 3 Zrotation Yrotation Xrotation
			JOINT Spine1
			{
				OFFSET 0.056720 2.048850 -0.042750
				CHANNELS 3 Zrotation Yrotation Xrotation
				JOINT Neck
				{
					OFFSET 0.000000 0.000000 0.000000
					CHANNELS 3 Zrotation Yrotation Xrotation
					JOINT Neck1
					{
						OFFSET -0.054170 1.746240 0.172020
						CHANNELS 3 Zrotation Yrotation Xrotation
						JOINT Head
						{
							OFFSET 0.104070 1.761360 -0.123970
							CHANNELS 3 Zrotation Yrotation Xrotation
							End Site
							{
								OFFSET 0.000000 0.000000 0.000000
							}
						}
					}
				}
				JOINT LeftShoulder
				{
					OFFSET 0.000000 0.000000 0.000000
					CHANNELS 3 Zrotation Yrotation Xrotation
					JOINT LeftArm
					{
						OFFSET 3.362410 1.200890 -0.311210
						CHANNELS 3 Zrotation Yrotation Xrotation
						JOINT LeftForeArm
						{
							OFFSET 4.983000 -0.000000 -0.000000
							CHANNELS 3 Zrotation Yrotation Xrotation
							JOINT LeftHand
							{
								OFFSET 3.483560 -0.000000 -0.000000
								CHANNELS 3 Zrotation Yrotation Xrotation
								JOINT LeftFingerBase
								{
									OFFSET 0.000000 0.000000 0.000000
									CHANNELS 3 Zrotation Yrotation Xrotation
									JOINT LeftHandIndex1
									{
										OFFSET 0.715260 -0.000000 -0.000000
										CHANNELS 3 Zrotation Yrotation Xrotation
										End Site
										{
											OFFSET 0.000000 0.000000 0.000000
										}
									}
								}
								JOINT LThumb
								{
									OFFSET 0.000000 0.000000 0.000000
									CHANNELS 3 Zrotation Yrotation Xrotation
									End Site
									{
										OFFSET 0.000000 0.000000 0.000000
									}
								}
							}
						}
					}
				}
				JOINT RightShoulder
				{
					OFFSET 0.000000 0.000000 0.000000
					CHANNELS 3 Zrotation Yrotation Xrotation
					JOINT RightArm
					{
						OFFSET -3.136600 1.374050 -0.404650
						CHANNELS 3 Zrotation Yrotation Xrotation
						JOINT RightForeArm
						{
							OFFSET -5.241900 -0.000000 -0.000000
							CHANNELS 3 Zrotation Yrotation Xrotation
							JOINT RightHand
							{
								OFFSET -3.444170 -0.000000 -0.000000
								CHANNELS 3 Zrotation Yrotation Xrotation
								JOINT RightFingerBase
								{
									OFFSET 0.000000 0.000000 0.000000
									CHANNELS 3 Zrotation Yrotation Xrotation
									JOINT RightHandIndex1
									{
										OFFSET -0.622530 -0.000000 -0.000000
										CHANNELS 3 Zrotation Yrotation Xrotation
										End Site
										{
											OFFSET 0.000000 0.000000 0.000000
										}
									}
								}
								JOINT RThumb
								{
									OFFSET 0.000000 0.000000 0.000000
									CHANNELS 3 Zrotation Yrotation Xrotation
									End Site
									{
										OFFSET 0.000000 0.000000 0.000000
									}
								}
							}
						}
					}
				}
			}
		}
	}
}
MOTION
Frames: 7
Frame Time: 0.008333
-2.777792 16.744894 -3.067999 -1.920189 74.582642 15.802679 -9.666023 -1.332698 1.300063 -0.958097 0.384752 -41.717056 -1.826428 0.566462 14.098817 -0.266556 -3.918732 13.675852 -1.150100 0.000001 -39.621300 9.460677 -1.747580 -0.358031 5.889813 6.862335 0.314767 2.315179 -0.919348 18.633684 0.150506 4.162261 -9.093026 -0.021900 0.000001 -70.278100 -5.419732 1.176615 -0.206292 -1.710337 1.490608 -2.513321 -5.152420 1.429194 2.434811 10.045934 -6.286530 -6.666262 -2.223349 -0.180027 0.165696 0.000000 0.000000 0.000000 -7.174409 18.570839 1.576160 -70.074995 20.065370 9.224576 -4.169173 -25.296903 -0.034721 -13.563573 7.707321 -0.930041 -0.043127 -0.119998 -0.000000 0.000000 0.000000 0.000000 0.000000 0.000000 0.000000 11.252162 -1.524308 0.882166 39.737668 23.465315 13.945318 1.208257 65.068098 0.023691 7.420300 5.736164 0.390752 -0.062748 -0.229369 0.000000 0.000000 0.000000 0.000000 0.000000 0.000000 0.000000 
-2.636027 16.771571 -3.058745 -0.898923 74.029813 16.806007 -9.620791 -1.273179 1.131783 -1.623718 0.883722 -41.558114 -1.898652 0.607012 14.978293 -0.270172 -3.851253 12.887846 -1.071500 -0.000000 -39.065100 9.662016 -1.821935 -0.390333 5.289377 6.624122 -0.575694 2.122198 -1.196783 20.737192 0.173717 4.039627 -7.876520 0.011900 0.000000 -71.823400 -5.951568 1.087030 -0.103395 -1.826443 1.433164 -2.513696 -5.219642 1.370504 2.374155 10.223029 -6.232032 -6.584641 -2.251373 -0.182739 0.182015 0.000000 0.000000 0.000000 -7.101600 18.093313 1.599937 -69.954803 19.380255 9.503956 -4.182313 -24.907272 -0.033994 -13.487803 7.747718 -0.929132 -0.044117 -0.116885 -0.000000 0.000000 0.000000 0.000000 0.000000 0.000000 0.000000 11.472644 -1.528657 0.878952 40.763716 22.901569 14.105025 1.271349 64.463233 0.023681 7.351413 5.725149 0.385890 -0.056238 -0.225634 0.000000 0.000000 0.000000 0.000000 0.000000 0.000000 0.000000 
-2.497824 16.802459 -3.050725 -0.026273 73.420198 17.649345 -9.567300 -1.207090 0.982006 -2.207125 1.291607 -41.229201 -1.970729 0.622655 15.637422 -0.268240 -3.694235 11.926811 -0.952800 0.000000 -38.849600 9.878992 -1.882922 -0.452133 4.678224 6.233661 -1.602543 1.910620 -1.475127 22.979641 0.186452 3.891047 -6.545744 0.053101 0.000000 -72.783301 -6.436137 1.001881 0.020700 -1.933665 1.377253 -2.508448 -5.285886 1.313889 2.318971 10.351274 -6.173421 -6.497212 -2.282560 -0.185711 0.199358 0.000000 0.000000 0.000000 -7.049983 17.627364 1.620507 -69.790414 18.586240 9.877567 -4.193490 -24.498364 -0.033189 -13.409024 7.790392 -0.928120 -0.045193 -0.113394 -0.000000 0.000000 0.000000 0.000000 0.000000 0.000000 0.000000 11.662151 -1.535606 0.869210 41.826501 22.367153 14.291669 1.337553 63.761173 0.023624 7.301084 5.704392 0.381325 -0.050175 -0.221247 0.000000 0.000000 0.000000 0.000000 0.000000 0.000000 0.000000 
-2.362690 16.836410 -3.044789 0.649259 72.743855 18.289592 -9.511205 -1.135581 0.852203 -2.697674 1.630245 -40.747865 -2.037598 0.615851 16.080996 -0.256051 -3.436042 10.878421 -0.802900 0.000000 -38.902800 10.102424 -1.925732 -0.534427 4.082557 5.725004 -2.751331 1.681623 -1.744156 25.327021 0.172622 3.625837 -5.166647 0.094899 0.000000 -73.152800 -6.853219 0.925617 0.155572 -2.027809 1.325918 -2.501119 -5.350741 1.262163 2.263946 10.425433 -6.097508 -6.399120 -2.316726 -0.189027 0.219500 0.000000 0.000000 0.000000 -7.033593 17.158989 1.637280 -69.582327 17.727935 10.320542 -4.202077 -24.103232 -0.032336 -13.329790 7.835532 -0.927405 -0.046310 -0.109636 -0.000000 0.000000 0.000000 0.000000 0.000000 0.000000 0.000000 11.810473 -1.529509 0.855058 42.908140 21.840453 14.503204 1.405890 62.986417 0.023547 7.284568 5.672987 0.377955 -0.044802 -0.216215 0.000000 0.000000 0.000000 0.000000 0.000000 0.000000 0.000000 
-2.230106 16.872368 -3.041379 1.105944 71.996753 18.710326 -9.457691 -1.060293 0.741469 -3.094326 1.926761 -40.138669 -2.095236 0.590122 16.321952 -0.230271 -3.071236 9.826233 -0.632200 -0.000000 -39.139600 10.323616 -1.946540 -0.628558 3.527287 5.134209 -4.003648 1.438104 -1.995380 27.742641 0.117883 3.148218 -3.811927 0.120800 0.000000 -72.967300 -7.191199 0.859890 0.292902 -2.106380 1.280090 -2.492251 -5.414010 1.216216 2.213807 10.451637 -6.009259 -6.296486 -2.353935 -0.192622 0.241001 0.000000 0.000000 0.000000 -7.052860 16.712417 1.649525 -69.329470 16.798489 10.843975 -4.207846 -23.721978 -0.031430 -13.249211 7.877940 -0.926087 -0.047477 -0.105608 -0.000000 0.000000 0.000000 0.000000 0.000000 0.000000 0.000000 11.927843 -1.513822 0.837730 43.970648 21.331752 14.751236 1.474679 62.161619 0.023435 7.302477 5.632876 0.375680 -0.040208 -0.210593 0.000000 0.000000 0.000000 0.000000 0.000000 0.000000 0.000000 
-2.099579 16.909279 -3.040744 1.339228 71.180697 18.910999 -9.411655 -0.983045 0.647037 -3.402552 2.212174 -39.431656 -2.140734 0.550027 16.383377 -0.189597 -2.604254 8.842399 -0.451299 -0.000000 -39.464900 10.534459 -1.943154 -0.726659 3.037274 4.496231 -5.339075 1.184588 -2.222745 30.190497 0.010709 2.368003 -2.553114 0.106200 0.000000 -72.278200 -7.442472 0.805087 0.426594 -2.167576 1.239803 -2.482781 -5.475602 1.175991 2.169751 10.437704 -5.909979 -6.192504 -2.393874 -0.196438 0.263196 0.000000 0.000000 0.000000 -7.107660 16.296206 1.657401 -69.031621 15.805121 11.441360 -4.211114 -23.361911 -0.030480 -13.167327 7.914897 -0.923965 -0.048733 -0.101333 0.000000 0.000000 0.000000 0.000000 0.000000 0.000000 0.000000 12.021468 -1.488579 0.818851 44.986556 20.838757 15.041517 1.542576 61.311411 0.023284 7.355189 5.585394 0.374699 -0.036415 -0.204449 0.000000 0.000000 0.000000 0.000000 0.000000 0.000000 0.000000 
-1.970687 16.946378 -3.042774 1.365976 70.303896 18.911082 -9.377050 -0.905575 0.564626 -3.633857 2.517490 -38.658287 -2.172831 0.500471 16.295244 -0.134922 -2.049683 7.981565 -0.269099 -0.000000 -39.791600 10.728726 -1.914973 -0.822558 2.632326 3.839026 -6.737198 0.926769 -2.422848 32.636053 -0.157045 1.215530 -1.453778 0.023900 0.000000 -71.145400 -7.605239 0.760002 0.553484 -2.210701 1.203917 -2.473755 -5.535548 1.140244 2.129930 10.393289 -5.800529 -6.087869 -2.436001 -0.200433 0.286058 0.000000 0.000000 0.000000 -7.195676 15.901425 1.661760 -68.690026 14.770409 12.087154 -4.212693 -23.036900 -0.029511 -13.084796 7.946834 -0.921140 -0.050138 -0.096875 0.000000 0.000000 0.000000 0.000000 0.000000 0.000000 0.000000 12.097631 -1.454328 0.800767 45.938035 20.353744 15.376287 1.608772 60.457203 0.023096 7.439980 5.532348 0.375012 -0.033345 -0.197875 0.000000 0.000000 0.000000 0.000000 0.000000 0.000000 0.000000 
